<svg xmlns="http://www.w3.org/2000/svg" xmlns:xlink="http://www.w3.org/1999/xlink" viewBox="0 0 210 210"><defs><style>.cls-1{fill:none;}.cls-2{clip-path:url(#clip-path);}.cls-3{fill:#fff;}.cls-4{clip-path:url(#clip-path-2);}</style><clipPath id="clip-path"><rect class="cls-1" width="210" height="210"/></clipPath><clipPath id="clip-path-2"><rect class="cls-1" x="-230" width="210" height="210"/></clipPath></defs><title>Meso_White</title><g id="Meso_White"><g class="cls-2"><path class="cls-3" d="M105,92.12,80.38,67.5,90,57.88,114.62,82.5ZM84.62,67.5,105,87.88l5.38-5.38L90,62.12Z"/><path class="cls-3" d="M142.5,99.62,90,47.12,67.5,69.62,57.88,60,90,27.88l30,30,15.5-15.5L152.62,59.5,143,69.12l-7.5-7.5-5.88,5.88L142.5,80.38,165,57.88l9.62,9.62ZM90,42.88l52.5,52.5L170.38,67.5,165,62.12l-22.5,22.5L125.38,67.5,135.5,57.38l7.5,7.5,5.38-5.38L135.5,46.62,120,62.12l-30-30L62.12,60l5.38,5.38Z"/><path class="cls-3" d="M67.5,99.62,34.88,67l9.62-9.62,23,23,7.5-7.5,9.62,9.62ZM39.12,67,67.5,95.38,80.38,82.5,75,77.12l-7.5,7.5-23-23Z"/><path class="cls-3" d="M67.5,129.62,57.88,120,90,87.88l24.62,24.62L105,122.12l-15-15ZM62.12,120l5.38,5.38L90,102.88l15,15,5.38-5.38L90,92.12Z"/><path class="cls-3" d="M105,152.12,80.38,127.5,90,117.88l15,15,30-30,9.62,9.62ZM84.62,127.5,105,147.88l35.38-35.38L135,107.12l-30,30-15-15Z"/><path class="cls-3" d="M82.5,159.62,65.38,142.5,75,132.88,92.12,150ZM69.62,142.5,82.5,155.38,87.88,150,75,137.12Z"/><path class="cls-3" d="M180,137.12,147.88,105l9.62-9.62,32.12,32.12ZM152.12,105,180,132.88l5.38-5.38L157.5,99.62Z"/><path class="cls-3" d="M180,167.12l-15-15-15,15-9.62-9.62,15-15L150,137.12l-15,15-9.62-9.62L150,117.88l39.62,39.62Zm-15-19.24,15,15,5.38-5.38L150,122.12,129.62,142.5l5.38,5.38,15-15,9.62,9.62-15,15,5.38,5.38Z"/><path class="cls-3" d="M150,197.12,110.38,157.5l9.62-9.62,30,30,15-15,9.62,9.62ZM114.62,157.5,150,192.88l20.38-20.38L165,167.12l-15,15-30-30Z"/><path class="cls-3" d="M45,182.12l-9.62-9.62L60,147.88l9.62,9.62Zm-5.38-9.62L45,177.88,65.38,157.5,60,152.12Z"/><path class="cls-3" d="M120,107.12l-9.62-9.62L120,87.88l9.62,9.62Zm-5.38-9.62,5.38,5.38,5.38-5.38L120,92.12Z"/><path class="cls-3" d="M97.5,174.62,87.88,165l9.62-9.62,9.62,9.62ZM92.12,165l5.38,5.38,5.38-5.38-5.38-5.38Z"/><path class="cls-3" d="M97.5,204.62,65.38,172.5,75,162.88l22.5,22.5,15-15,9.62,9.62ZM69.62,172.5,97.5,200.38,117.88,180l-5.38-5.38-15,15L75,167.12Z"/><path class="cls-3" d="M172.5,99.62,162.88,90,195,57.88l9.62,9.62ZM167.12,90l5.38,5.38L200.38,67.5,195,62.12Z"/><path class="cls-3" d="M112,220.12l-9.62-9.62,25.12-25.12,9.62,9.62Zm-5.38-9.62,5.38,5.38L132.88,195l-5.38-5.38Z"/><path class="cls-3" d="M67.5,204.62l-7.5-7.5-7.5,7.5L42.88,195,60,177.88,77.12,195ZM60,192.88l7.5,7.5L72.88,195,60,182.12,47.12,195l5.38,5.38Z"/><path class="cls-3" d="M180,62.37l-15.4-15.22-7.08,7.5L147.87,45l16.61-16.26,25.16,23.86ZM164.54,42.85,180,58.13l5.37-5.47L164.52,32.89,152.13,45l5.34,5.34Z"/><path class="cls-3" d="M75,32.12,65.38,22.5,75,12.88l9.62,9.62ZM69.62,22.5,75,27.88l5.38-5.38L75,17.12Z"/><path class="cls-3" d="M-15,152.12l-9.62-9.62L7,110.88l9.62,9.62Zm-5.38-9.62,5.38,5.38L12.38,120.5,7,115.12Z"/><path class="cls-3" d="M-15,122.12-32.13,105-7.52,80.93l9.7,9-7.56,7.31L2.1,105ZM-27.87,105-15,117.88-2.1,105l-7.52-7.77L-2.18,90l-5.3-5Z"/><path class="cls-3" d="M0,62.62-32.12,30.5l9.62-9.62L0,43.38l15-15L24.62,38ZM-27.88,30.5,0,58.38,20.38,38,15,32.62l-15,15-22.5-22.5Z"/><path class="cls-3" d="M-7.5,204.62l-15-15-7.5,7.5-9.62-9.62L0,147.88l24.64,24.64L15,181.84,0,167.11-12.9,180l5.4,5.57L0,177.86l9.64,9.64Zm-15-19.24,15,15L5.38,187.5,0,182.14l-7.52,7.77L-17.1,180,0,162.89l15,14.77,5.35-5.18L0,152.12-35.38,187.5l5.38,5.38Z"/><path class="cls-3" d="M7.5,84.62-2.12,75,30,42.88l9.62,9.62ZM2.12,75,7.5,80.38,35.38,52.5,30,47.12Z"/><path class="cls-3" d="M15,107.12,5.38,97.5,30,72.88l9.62,9.62ZM9.62,97.5,15,102.88,35.38,82.5,30,77.12Z"/><path class="cls-3" d="M30,122.12l-9.62-9.62L45,87.88,62.12,105l-9.62,9.62-7.5-7.5Zm-5.38-9.62L30,117.88l15-15,7.5,7.5L57.88,105,45,92.12Z"/><path class="cls-3" d="M29.5,166.62,5.38,142.5,22.5,125.38,32.12,135l-7.5,7.5L39.12,157ZM9.62,142.5,29.5,162.38,34.88,157l-14.5-14.5,7.5-7.5-5.38-5.38Z"/><path class="cls-3" d="M45,152.12l-9.62-9.62,7.5-7.5-7.5-7.5L45,117.88,62.12,135Zm-5.38-9.62L45,147.88,57.88,135,45,122.12l-5.38,5.38,7.5,7.5Z"/><path class="cls-3" d="M23,204.12l-9.62-9.62L30,177.88l9.62,9.62Zm-5.38-9.62L23,199.88,35.38,187.5,30,182.12Z"/><path class="cls-3" d="M172.5,99.62,162.88,90,195,57.88l9.62,9.62ZM167.12,90l5.38,5.38L200.38,67.5,195,62.12Z"/><path class="cls-3" d="M.05,32.64l-17.61-17L-8.08,4.53,9.58,22.47ZM-13.44,15.4,0,28.36l5.47-5.83L-7.92,9Z"/><path class="cls-3" d="M120,257.12,73.43,210.55,83,200.07l46.65,47.44ZM77.57,210.45,120,252.88l5.39-5.39L83,204.43Z"/><path class="cls-3" d="M172.37,234.61l-17.23-17.09,7.29-7.54-7.05-7.55,10.15-9.52,14.95,15,7-7,9.63,9.35Zm-13-17.13,13,12.91,20.41-20.13-5.3-5.15-7,7-15-15-5.85,5.48,6.95,7.45Z"/><path class="cls-3" d="M172.37,24.61,155.14,7.52,162.43,0l-7.05-7.55,10.15-9.52,14.95,15,7-7L197.08.24Zm-13-17.13,13,12.91L192.79.26l-5.3-5.15-7,7-15-15-5.85,5.48L166.57,0Z"/><path class="cls-3" d="M52.5,234.62,27.88,210l9.62-9.62,15,15,7.5-7.5,9.62,9.62ZM32.12,210,52.5,230.38,65.38,217.5,60,212.12l-7.5,7.5-15-15Z"/><path class="cls-3" d="M142.24,249.62,117.75,225l24.75-24.61,9.62,9.62-15,15,5.15,5.32,7.2-7.44,10.22,9.57ZM122,225l20.26,20.37,13.07-12.85-5.78-5.43-7.3,7.56L132.9,225l15-15-5.38-5.38Z"/><path class="cls-3" d="M112,10.12,102.38.5,127.5-24.62,137.12-15ZM106.62.5,112,5.88,132.88-15l-5.38-5.38Z"/><path class="cls-3" d="M120,47.12,73.43.55,83-9.93l46.65,47.44ZM77.57.45,120,42.88l5.39-5.39L83-5.57Z"/><path class="cls-3" d="M15,17.12-2.62-.5,7-10.12,24.62,7.5ZM1.62-.5,15,12.88,20.38,7.5,7-5.88Z"/><path class="cls-3" d="M15,227.12-2.62,209.5,7,199.88,24.62,217.5ZM1.62,209.5,15,222.88l5.38-5.38L7,204.12Z"/><path class="cls-3" d="M195,152.12l-9.62-9.62L217,110.88l9.62,9.62Zm-5.38-9.62,5.38,5.38,27.38-27.38L217,115.12Z"/><path class="cls-3" d="M172.5,99.62,162.88,90,195,57.88l9.62,9.62ZM167.12,90l5.38,5.38L200.38,67.5,195,62.12Z"/><path class="cls-3" d="M195,122.12,177.87,105l24.61-24.06,9.7,9-7.56,7.31L212.1,105ZM182.13,105,195,117.88,207.9,105l-7.52-7.77L207.82,90l-5.3-5Z"/><path class="cls-3" d="M210,62.62,177.88,30.5l9.62-9.62L210,43.38l15-15L234.62,38ZM182.12,30.5,210,58.38,230.38,38,225,32.62l-15,15-22.5-22.5Z"/><path class="cls-3" d="M202.5,204.62l-15-15-7.5,7.5-9.62-9.62L210,147.88l24.64,24.64L225,181.84l-15-14.73L197.1,180l5.4,5.57,7.48-7.73,9.64,9.64Zm-15-19.24,15,15,12.88-12.88L210,182.14l-7.52,7.77L192.9,180,210,162.89l15,14.77,5.35-5.18L210,152.12,174.62,187.5l5.38,5.38Z"/><path class="cls-3" d="M217.5,84.62,207.88,75,240,42.88l9.62,9.62ZM212.12,75l5.38,5.38L245.38,52.5,240,47.12Z"/><path class="cls-3" d="M210.05,32.64l-17.61-17,9.48-11.07,17.66,17.94ZM196.56,15.4l13.39,13,5.47-5.83L202.08,9Z"/><path class="cls-3" d="M225,17.12,207.38-.5,217-10.12,234.62,7.5ZM211.62-.5,225,12.88l5.38-5.38L217-5.88Z"/><path class="cls-3" d="M225,227.12,207.38,209.5l9.62-9.62,17.62,17.62ZM211.62,209.5,225,222.88l5.38-5.38L217,204.12Z"/><path class="cls-3" d="M52.5,24.62,27.88,0,37.5-9.62l15,15L60-2.12,69.62,7.5ZM32.12,0,52.5,20.38,65.38,7.5,60,2.12l-7.5,7.5-15-15Z"/><path class="cls-3" d="M142.24,39.62,117.75,15,142.5-9.62,152.12,0l-15,15,5.15,5.32,7.2-7.44,10.22,9.57ZM122,15l20.26,20.37,13.07-12.85-5.78-5.43-7.3,7.56L132.9,15l15-15L142.5-5.38Z"/><path class="cls-3" d="M52.5,54.62,20.38,22.5,30,12.88l22.5,22.5,7.5-7.5,9.62,9.62ZM24.62,22.5,52.5,50.38,65.38,37.5,60,32.12l-7.5,7.5L30,17.12Z"/></g></g><g id="Meso_Black"><g class="cls-4"><path d="M-20,62.62-52.12,30.5l9.62-9.62L-20,43.38l15-15L4.62,38ZM-47.88,30.5-20,58.38.38,38-5,32.62l-15,15-22.5-22.5Z"/><path d="M-27.5,204.62l-15-15-7.5,7.5-9.62-9.62L-20,147.88,4.64,172.52-5,181.84l-15-14.73L-32.9,180l5.4,5.57,7.48-7.73,9.64,9.64Zm-15-19.24,15,15,12.88-12.88L-20,182.14l-7.52,7.77L-37.1,180-20,162.89l15,14.77,5.35-5.18L-20,152.12-55.38,187.5l5.38,5.38Z"/><path d="M-12.5,84.62-22.12,75,10,42.88l9.62,9.62ZM-17.88,75l5.38,5.38L15.38,52.5,10,47.12Z"/><path d="M-5,17.12-22.62-.5-13-10.12,4.62,7.5ZM-18.38-.5-5,12.88.38,7.5-13-5.88Z"/><path d="M-5,227.12-22.62,209.5l9.62-9.62L4.62,217.5ZM-18.38,209.5-5,222.88.38,217.5-13,204.12Z"/></g></g></svg>